# xmcd
#
# Track frame offsets: 
#        150
#        21168
#        39315
#        58579
#        79423
#        100438
#        120872
#        140076
#        158775
#        179589
#
# Disc length: 2682 seconds
#
# Revision: 0
# Processed by: cddbd v1.5.2PL0 Copyright (c) Steve Scherf et al.
# Submitted via: ExactAudioCopy v0.95b4
#
DISCID=830a780a
DTITLE=Style Plus - Back and Better
DYEAR=2007
DGENRE=Hip-Hop - Nigerian
TTITLE0=Four Years
TTITLE1=I No Wan Trouble
TTITLE2=I Don Tire
TTITLE3=If You Go
TTITLE4=Beatiful Ladies
TTITLE5=Mi O ba E Sere Mo
TTITLE6=Still Gonna Love You
TTITLE7=Candy Man
TTITLE8=When You Smile
TTITLE9=Longing for You
EXTD=
EXTT0=
EXTT1=
EXTT2=
EXTT3=
EXTT4=
EXTT5=
EXTT6=
EXTT7=
EXTT8=
EXTT9=
PLAYORDER=
